<svg width="1600" height="92" viewBox="0 0 1600 92" fill="none" xmlns="http://www.w3.org/2000/svg">
<rect width="1600" height="92" fill="#1C1E53"/>
<rect x="1256" y="17" width="183" height="58" rx="29" stroke="#F4F6FC" stroke-opacity="0.2" stroke-width="2"/>
<path d="M1303.59 46.416C1303.59 45.328 1303.84 44.352 1304.34 43.488C1304.86 42.624 1305.54 41.952 1306.41 41.472C1307.28 40.9813 1308.24 40.736 1309.27 40.736C1310.46 40.736 1311.51 41.0293 1312.42 41.616C1313.35 42.192 1314.02 43.0133 1314.44 44.08H1312.25C1311.96 43.4933 1311.56 43.056 1311.05 42.768C1310.54 42.48 1309.94 42.336 1309.27 42.336C1308.54 42.336 1307.88 42.5013 1307.3 42.832C1306.73 43.1627 1306.27 43.6373 1305.94 44.256C1305.62 44.8747 1305.46 45.5947 1305.46 46.416C1305.46 47.2373 1305.62 47.9573 1305.94 48.576C1306.27 49.1947 1306.73 49.6747 1307.3 50.016C1307.88 50.3467 1308.54 50.512 1309.27 50.512C1309.94 50.512 1310.54 50.368 1311.05 50.08C1311.56 49.792 1311.96 49.3547 1312.25 48.768H1314.44C1314.02 49.8347 1313.35 50.656 1312.42 51.232C1311.51 51.808 1310.46 52.096 1309.27 52.096C1308.23 52.096 1307.27 51.856 1306.41 51.376C1305.54 50.8853 1304.86 50.208 1304.34 49.344C1303.84 48.48 1303.59 47.504 1303.59 46.416ZM1320.4 52.144C1319.57 52.144 1318.82 51.9573 1318.14 51.584C1317.47 51.2 1316.94 50.6667 1316.56 49.984C1316.18 49.2907 1315.98 48.4907 1315.98 47.584C1315.98 46.688 1316.18 45.8933 1316.58 45.2C1316.97 44.5067 1317.51 43.9733 1318.19 43.6C1318.87 43.2267 1319.64 43.04 1320.48 43.04C1321.32 43.04 1322.08 43.2267 1322.77 43.6C1323.45 43.9733 1323.99 44.5067 1324.38 45.2C1324.78 45.8933 1324.98 46.688 1324.98 47.584C1324.98 48.48 1324.77 49.2747 1324.37 49.968C1323.96 50.6613 1323.41 51.2 1322.7 51.584C1322.01 51.9573 1321.24 52.144 1320.4 52.144ZM1320.4 50.56C1320.87 50.56 1321.31 50.448 1321.71 50.224C1322.13 50 1322.46 49.664 1322.72 49.216C1322.98 48.768 1323.1 48.224 1323.1 47.584C1323.1 46.944 1322.98 46.4053 1322.74 45.968C1322.49 45.52 1322.16 45.184 1321.76 44.96C1321.35 44.736 1320.92 44.624 1320.45 44.624C1319.98 44.624 1319.54 44.736 1319.14 44.96C1318.74 45.184 1318.43 45.52 1318.19 45.968C1317.96 46.4053 1317.84 46.944 1317.84 47.584C1317.84 48.5333 1318.08 49.2693 1318.56 49.792C1319.05 50.304 1319.66 50.56 1320.4 50.56ZM1331.23 43.04C1331.92 43.04 1332.54 43.184 1333.08 43.472C1333.64 43.76 1334.07 44.1867 1334.38 44.752C1334.69 45.3173 1334.84 46 1334.84 46.8V52H1333.03V47.072C1333.03 46.2827 1332.84 45.68 1332.44 45.264C1332.05 44.8373 1331.51 44.624 1330.83 44.624C1330.14 44.624 1329.6 44.8373 1329.19 45.264C1328.8 45.68 1328.6 46.2827 1328.6 47.072V52H1326.78V43.184H1328.6V44.192C1328.9 43.8293 1329.28 43.5467 1329.74 43.344C1330.21 43.1413 1330.7 43.04 1331.23 43.04ZM1339.3 44.672V49.552C1339.3 49.8827 1339.37 50.1227 1339.52 50.272C1339.68 50.4107 1339.95 50.48 1340.32 50.48H1341.44V52H1340C1339.18 52 1338.55 51.808 1338.11 51.424C1337.68 51.04 1337.46 50.416 1337.46 49.552V44.672H1336.42V43.184H1337.46V40.992H1339.3V43.184H1341.44V44.672H1339.3ZM1342.51 47.552C1342.51 46.6667 1342.7 45.8827 1343.06 45.2C1343.43 44.5173 1343.93 43.9893 1344.56 43.616C1345.2 43.232 1345.91 43.04 1346.67 43.04C1347.37 43.04 1347.97 43.1787 1348.48 43.456C1349 43.7227 1349.42 44.0587 1349.73 44.464V43.184H1351.57V52H1349.73V50.688C1349.42 51.104 1349 51.4507 1348.47 51.728C1347.93 52.0053 1347.32 52.144 1346.64 52.144C1345.88 52.144 1345.19 51.952 1344.56 51.568C1343.93 51.1733 1343.43 50.6293 1343.06 49.936C1342.7 49.232 1342.51 48.4373 1342.51 47.552ZM1349.73 47.584C1349.73 46.976 1349.6 46.448 1349.35 46C1349.1 45.552 1348.78 45.2107 1348.37 44.976C1347.96 44.7413 1347.53 44.624 1347.06 44.624C1346.59 44.624 1346.15 44.7413 1345.75 44.976C1345.34 45.2 1345.01 45.536 1344.75 45.984C1344.51 46.4213 1344.39 46.944 1344.39 47.552C1344.39 48.16 1344.51 48.6933 1344.75 49.152C1345.01 49.6107 1345.34 49.9627 1345.75 50.208C1346.16 50.4427 1346.6 50.56 1347.06 50.56C1347.53 50.56 1347.96 50.4427 1348.37 50.208C1348.78 49.9733 1349.1 49.632 1349.35 49.184C1349.6 48.7253 1349.73 48.192 1349.73 47.584ZM1353.36 47.584C1353.36 46.6773 1353.54 45.8827 1353.9 45.2C1354.27 44.5067 1354.79 43.9733 1355.44 43.6C1356.09 43.2267 1356.83 43.04 1357.68 43.04C1358.74 43.04 1359.62 43.296 1360.32 43.808C1361.02 44.3093 1361.5 45.0293 1361.74 45.968H1359.77C1359.61 45.5307 1359.36 45.1893 1359.01 44.944C1358.65 44.6987 1358.21 44.576 1357.68 44.576C1356.93 44.576 1356.33 44.8427 1355.89 45.376C1355.45 45.8987 1355.23 46.6347 1355.23 47.584C1355.23 48.5333 1355.45 49.2747 1355.89 49.808C1356.33 50.3413 1356.93 50.608 1357.68 50.608C1358.73 50.608 1359.43 50.144 1359.77 49.216H1361.74C1361.49 50.112 1361.01 50.8267 1360.3 51.36C1359.6 51.8827 1358.72 52.144 1357.68 52.144C1356.83 52.144 1356.09 51.9573 1355.44 51.584C1354.79 51.2 1354.27 50.6667 1353.9 49.984C1353.54 49.2907 1353.36 48.4907 1353.36 47.584ZM1365.69 44.672V49.552C1365.69 49.8827 1365.76 50.1227 1365.91 50.272C1366.07 50.4107 1366.34 50.48 1366.71 50.48H1367.83V52H1366.39C1365.57 52 1364.94 51.808 1364.5 51.424C1364.07 51.04 1363.85 50.416 1363.85 49.552V44.672H1362.81V43.184H1363.85V40.992H1365.69V43.184H1367.83V44.672H1365.69ZM1381.65 43.184V52H1379.83V50.96C1379.54 51.3227 1379.16 51.6107 1378.69 51.824C1378.23 52.0267 1377.74 52.128 1377.22 52.128C1376.53 52.128 1375.9 51.984 1375.35 51.696C1374.8 51.408 1374.37 50.9813 1374.05 50.416C1373.74 49.8507 1373.59 49.168 1373.59 48.368V43.184H1375.4V48.096C1375.4 48.8853 1375.59 49.4933 1375.99 49.92C1376.38 50.336 1376.92 50.544 1377.6 50.544C1378.29 50.544 1378.83 50.336 1379.22 49.92C1379.63 49.4933 1379.83 48.8853 1379.83 48.096V43.184H1381.65ZM1387.26 52.144C1386.57 52.144 1385.94 52.0213 1385.39 51.776C1384.84 51.52 1384.41 51.1787 1384.09 50.752C1383.77 50.3147 1383.6 49.8293 1383.58 49.296H1385.47C1385.5 49.6693 1385.68 49.984 1386 50.24C1386.33 50.4853 1386.74 50.608 1387.23 50.608C1387.74 50.608 1388.13 50.512 1388.41 50.32C1388.7 50.1173 1388.84 49.8613 1388.84 49.552C1388.84 49.2213 1388.68 48.976 1388.36 48.816C1388.05 48.656 1387.56 48.48 1386.88 48.288C1386.21 48.1067 1385.68 47.9307 1385.26 47.76C1384.84 47.5893 1384.48 47.328 1384.17 46.976C1383.87 46.624 1383.72 46.16 1383.72 45.584C1383.72 45.1147 1383.86 44.688 1384.14 44.304C1384.42 43.9093 1384.81 43.6 1385.32 43.376C1385.85 43.152 1386.44 43.04 1387.12 43.04C1388.12 43.04 1388.92 43.296 1389.53 43.808C1390.15 44.3093 1390.48 44.9973 1390.52 45.872H1388.7C1388.67 45.4773 1388.51 45.1627 1388.22 44.928C1387.93 44.6933 1387.54 44.576 1387.05 44.576C1386.57 44.576 1386.2 44.6667 1385.95 44.848C1385.69 45.0293 1385.56 45.2693 1385.56 45.568C1385.56 45.8027 1385.65 46 1385.82 46.16C1385.99 46.32 1386.2 46.448 1386.44 46.544C1386.69 46.6293 1387.05 46.7413 1387.53 46.88C1388.17 47.0507 1388.69 47.2267 1389.1 47.408C1389.52 47.5787 1389.87 47.8347 1390.17 48.176C1390.47 48.5173 1390.62 48.9707 1390.64 49.536C1390.64 50.0373 1390.5 50.4853 1390.22 50.88C1389.94 51.2747 1389.55 51.584 1389.04 51.808C1388.53 52.032 1387.94 52.144 1387.26 52.144Z" fill="white"/>
<path d="M744.08 40.7706V51.8906H742.256V47.0266H737.024V51.8906H735.2V40.7706H737.024V45.5386H742.256V40.7706H744.08ZM750.305 52.0346C749.473 52.0346 748.721 51.848 748.049 51.4746C747.377 51.0906 746.849 50.5573 746.465 49.8746C746.081 49.1813 745.889 48.3813 745.889 47.4746C745.889 46.5786 746.087 45.784 746.481 45.0906C746.876 44.3973 747.415 43.864 748.097 43.4906C748.78 43.1173 749.543 42.9306 750.385 42.9306C751.228 42.9306 751.991 43.1173 752.673 43.4906C753.356 43.864 753.895 44.3973 754.289 45.0906C754.684 45.784 754.881 46.5786 754.881 47.4746C754.881 48.3706 754.679 49.1653 754.273 49.8586C753.868 50.552 753.313 51.0906 752.609 51.4746C751.916 51.848 751.148 52.0346 750.305 52.0346ZM750.305 50.4506C750.775 50.4506 751.212 50.3386 751.617 50.1146C752.033 49.8906 752.369 49.5546 752.625 49.1066C752.881 48.6586 753.009 48.1146 753.009 47.4746C753.009 46.8346 752.887 46.296 752.641 45.8586C752.396 45.4106 752.071 45.0746 751.665 44.8506C751.26 44.6266 750.823 44.5146 750.353 44.5146C749.884 44.5146 749.447 44.6266 749.041 44.8506C748.647 45.0746 748.332 45.4106 748.097 45.8586C747.863 46.296 747.745 46.8346 747.745 47.4746C747.745 48.424 747.985 49.16 748.465 49.6826C748.956 50.1946 749.569 50.4506 750.305 50.4506ZM767.356 42.9306C768.05 42.9306 768.668 43.0746 769.212 43.3626C769.767 43.6506 770.199 44.0773 770.508 44.6426C770.828 45.208 770.988 45.8906 770.988 46.6906V51.8906H769.18V46.9626C769.18 46.1733 768.983 45.5706 768.588 45.1546C768.194 44.728 767.655 44.5146 766.972 44.5146C766.29 44.5146 765.746 44.728 765.34 45.1546C764.946 45.5706 764.748 46.1733 764.748 46.9626V51.8906H762.94V46.9626C762.94 46.1733 762.743 45.5706 762.348 45.1546C761.954 44.728 761.415 44.5146 760.732 44.5146C760.05 44.5146 759.506 44.728 759.1 45.1546C758.706 45.5706 758.508 46.1733 758.508 46.9626V51.8906H756.684V43.0746H758.508V44.0826C758.807 43.72 759.186 43.4373 759.644 43.2346C760.103 43.032 760.594 42.9306 761.116 42.9306C761.82 42.9306 762.45 43.08 763.004 43.3786C763.559 43.6773 763.986 44.1093 764.284 44.6746C764.551 44.1413 764.967 43.72 765.532 43.4106C766.098 43.0906 766.706 42.9306 767.356 42.9306ZM781.389 47.2666C781.389 47.5973 781.368 47.896 781.325 48.1626H774.589C774.643 48.8666 774.904 49.432 775.373 49.8586C775.843 50.2853 776.419 50.4986 777.101 50.4986C778.083 50.4986 778.776 50.088 779.181 49.2666H781.149C780.883 50.0773 780.397 50.744 779.693 51.2666C779 51.7786 778.136 52.0346 777.101 52.0346C776.259 52.0346 775.501 51.848 774.829 51.4746C774.168 51.0906 773.645 50.5573 773.261 49.8746C772.888 49.1813 772.701 48.3813 772.701 47.4746C772.701 46.568 772.883 45.7733 773.245 45.0906C773.619 44.3973 774.136 43.864 774.797 43.4906C775.469 43.1173 776.237 42.9306 777.101 42.9306C777.933 42.9306 778.675 43.112 779.325 43.4746C779.976 43.8373 780.483 44.3493 780.845 45.0106C781.208 45.6613 781.389 46.4133 781.389 47.2666ZM779.485 46.6906C779.475 46.0186 779.235 45.48 778.765 45.0746C778.296 44.6693 777.715 44.4666 777.021 44.4666C776.392 44.4666 775.853 44.6693 775.405 45.0746C774.957 45.4693 774.691 46.008 774.605 46.6906H779.485Z" fill="white"/>
<path d="M821.904 49.7729H817.248L816.448 52.0449H814.544L818.528 40.9089H820.64L824.624 52.0449H822.704L821.904 49.7729ZM821.392 48.2849L819.584 43.1169L817.76 48.2849H821.392ZM828.18 44.5409C828.49 44.1143 828.911 43.7676 829.444 43.5009C829.988 43.2236 830.591 43.0849 831.252 43.0849C832.031 43.0849 832.735 43.2716 833.364 43.6449C833.994 44.0183 834.49 44.5516 834.852 45.2449C835.215 45.9276 835.396 46.7116 835.396 47.5969C835.396 48.4823 835.215 49.2769 834.852 49.9809C834.49 50.6743 833.988 51.2183 833.348 51.6129C832.719 51.9969 832.02 52.1889 831.252 52.1889C830.57 52.1889 829.962 52.0556 829.428 51.7889C828.906 51.5223 828.49 51.1809 828.18 50.7649V52.0449H826.356V40.2049H828.18V44.5409ZM833.54 47.5969C833.54 46.9889 833.412 46.4663 833.156 46.0289C832.911 45.5809 832.58 45.2449 832.164 45.0209C831.759 44.7863 831.322 44.6689 830.852 44.6689C830.394 44.6689 829.956 44.7863 829.54 45.0209C829.135 45.2556 828.804 45.5969 828.548 46.0449C828.303 46.4929 828.18 47.0209 828.18 47.6289C828.18 48.2369 828.303 48.7703 828.548 49.2289C828.804 49.6769 829.135 50.0183 829.54 50.2529C829.956 50.4876 830.394 50.6049 830.852 50.6049C831.322 50.6049 831.759 50.4876 832.164 50.2529C832.58 50.0076 832.911 49.6556 833.156 49.1969C833.412 48.7383 833.54 48.2049 833.54 47.5969ZM841.024 52.1889C840.192 52.1889 839.44 52.0023 838.768 51.6289C838.096 51.2449 837.568 50.7116 837.184 50.0289C836.8 49.3356 836.608 48.5356 836.608 47.6289C836.608 46.7329 836.805 45.9383 837.2 45.2449C837.595 44.5516 838.133 44.0183 838.816 43.6449C839.499 43.2716 840.261 43.0849 841.104 43.0849C841.947 43.0849 842.709 43.2716 843.392 43.6449C844.075 44.0183 844.613 44.5516 845.008 45.2449C845.403 45.9383 845.6 46.7329 845.6 47.6289C845.6 48.5249 845.397 49.3196 844.992 50.0129C844.587 50.7063 844.032 51.2449 843.328 51.6289C842.635 52.0023 841.867 52.1889 841.024 52.1889ZM841.024 50.6049C841.493 50.6049 841.931 50.4929 842.336 50.2689C842.752 50.0449 843.088 49.7089 843.344 49.2609C843.6 48.8129 843.728 48.2689 843.728 47.6289C843.728 46.9889 843.605 46.4503 843.36 46.0129C843.115 45.5649 842.789 45.2289 842.384 45.0049C841.979 44.7809 841.541 44.6689 841.072 44.6689C840.603 44.6689 840.165 44.7809 839.76 45.0049C839.365 45.2289 839.051 45.5649 838.816 46.0129C838.581 46.4503 838.464 46.9889 838.464 47.6289C838.464 48.5783 838.704 49.3143 839.184 49.8369C839.675 50.3489 840.288 50.6049 841.024 50.6049ZM855.387 43.2289V52.0449H853.563V51.0049C853.275 51.3676 852.896 51.6556 852.427 51.8689C851.968 52.0716 851.478 52.1729 850.955 52.1729C850.262 52.1729 849.638 52.0289 849.083 51.7409C848.539 51.4529 848.107 51.0263 847.787 50.4609C847.478 49.8956 847.323 49.2129 847.323 48.4129V43.2289H849.131V48.1409C849.131 48.9303 849.328 49.5383 849.723 49.9649C850.118 50.3809 850.656 50.5889 851.339 50.5889C852.022 50.5889 852.56 50.3809 852.955 49.9649C853.36 49.5383 853.563 48.9303 853.563 48.1409V43.2289H855.387ZM859.922 44.7169V49.5969C859.922 49.9276 859.996 50.1676 860.146 50.3169C860.306 50.4556 860.572 50.5249 860.946 50.5249H862.066V52.0449H860.626C859.804 52.0449 859.175 51.8529 858.738 51.4689C858.3 51.0849 858.082 50.4609 858.082 49.5969V44.7169H857.042V43.2289H858.082V41.0369H859.922V43.2289H862.066V44.7169H859.922ZM875.887 43.2289V52.0449H874.063V51.0049C873.775 51.3676 873.396 51.6556 872.927 51.8689C872.468 52.0716 871.978 52.1729 871.455 52.1729C870.762 52.1729 870.138 52.0289 869.583 51.7409C869.039 51.4529 868.607 51.0263 868.287 50.4609C867.978 49.8956 867.823 49.2129 867.823 48.4129V43.2289H869.631V48.1409C869.631 48.9303 869.828 49.5383 870.223 49.9649C870.618 50.3809 871.156 50.5889 871.839 50.5889C872.522 50.5889 873.06 50.3809 873.455 49.9649C873.86 49.5383 874.063 48.9303 874.063 48.1409V43.2289H875.887ZM881.494 52.1889C880.8 52.1889 880.176 52.0663 879.622 51.8209C879.078 51.5649 878.646 51.2236 878.326 50.7969C878.006 50.3596 877.835 49.8743 877.814 49.3409H879.702C879.734 49.7143 879.91 50.0289 880.23 50.2849C880.56 50.5303 880.971 50.6529 881.462 50.6529C881.974 50.6529 882.368 50.5569 882.646 50.3649C882.934 50.1623 883.078 49.9063 883.078 49.5969C883.078 49.2663 882.918 49.0209 882.598 48.8609C882.288 48.7009 881.792 48.5249 881.11 48.3329C880.448 48.1516 879.91 47.9756 879.494 47.8049C879.078 47.6343 878.715 47.3729 878.406 47.0209C878.107 46.6689 877.958 46.2049 877.958 45.6289C877.958 45.1596 878.096 44.7329 878.374 44.3489C878.651 43.9543 879.046 43.6449 879.558 43.4209C880.08 43.1969 880.678 43.0849 881.35 43.0849C882.352 43.0849 883.158 43.3409 883.766 43.8529C884.384 44.3543 884.715 45.0423 884.758 45.9169H882.934C882.902 45.5223 882.742 45.2076 882.454 44.9729C882.166 44.7383 881.776 44.6209 881.286 44.6209C880.806 44.6209 880.438 44.7116 880.182 44.8929C879.926 45.0743 879.798 45.3143 879.798 45.6129C879.798 45.8476 879.883 46.0449 880.054 46.2049C880.224 46.3649 880.432 46.4929 880.678 46.5889C880.923 46.6743 881.286 46.7863 881.766 46.9249C882.406 47.0956 882.928 47.2716 883.334 47.4529C883.75 47.6236 884.107 47.8796 884.406 48.2209C884.704 48.5623 884.859 49.0156 884.87 49.5809C884.87 50.0823 884.731 50.5303 884.454 50.9249C884.176 51.3196 883.782 51.6289 883.27 51.8529C882.768 52.0769 882.176 52.1889 881.494 52.1889Z" fill="#BBBBCB"/>
<path d="M925.744 40.9249V42.4129H921.024V45.6929H924.704V47.1809H921.024V52.0449H919.2V40.9249H925.744ZM935.514 47.4209C935.514 47.7516 935.493 48.0503 935.45 48.3169H928.714C928.768 49.0209 929.029 49.5863 929.498 50.0129C929.968 50.4396 930.544 50.6529 931.226 50.6529C932.208 50.6529 932.901 50.2423 933.306 49.4209H935.274C935.008 50.2316 934.522 50.8983 933.818 51.4209C933.125 51.9329 932.261 52.1889 931.226 52.1889C930.384 52.1889 929.626 52.0023 928.954 51.6289C928.293 51.2449 927.77 50.7116 927.386 50.0289C927.013 49.3356 926.826 48.5356 926.826 47.6289C926.826 46.7223 927.008 45.9276 927.37 45.2449C927.744 44.5516 928.261 44.0183 928.922 43.6449C929.594 43.2716 930.362 43.0849 931.226 43.0849C932.058 43.0849 932.8 43.2663 933.45 43.6289C934.101 43.9916 934.608 44.5036 934.97 45.1649C935.333 45.8156 935.514 46.5676 935.514 47.4209ZM933.61 46.8449C933.6 46.1729 933.36 45.6343 932.89 45.2289C932.421 44.8236 931.84 44.6209 931.146 44.6209C930.517 44.6209 929.978 44.8236 929.53 45.2289C929.082 45.6236 928.816 46.1623 928.73 46.8449H933.61ZM936.701 47.5969C936.701 46.7116 936.883 45.9276 937.245 45.2449C937.619 44.5623 938.12 44.0343 938.749 43.6609C939.389 43.2769 940.093 43.0849 940.861 43.0849C941.555 43.0849 942.157 43.2236 942.669 43.5009C943.192 43.7676 943.608 44.1036 943.917 44.5089V43.2289H945.757V52.0449H943.917V50.7329C943.608 51.1489 943.187 51.4956 942.653 51.7729C942.12 52.0503 941.512 52.1889 940.829 52.1889C940.072 52.1889 939.379 51.9969 938.749 51.6129C938.12 51.2183 937.619 50.6743 937.245 49.9809C936.883 49.2769 936.701 48.4823 936.701 47.5969ZM943.917 47.6289C943.917 47.0209 943.789 46.4929 943.533 46.0449C943.288 45.5969 942.963 45.2556 942.557 45.0209C942.152 44.7863 941.715 44.6689 941.245 44.6689C940.776 44.6689 940.339 44.7863 939.933 45.0209C939.528 45.2449 939.197 45.5809 938.941 46.0289C938.696 46.4663 938.573 46.9889 938.573 47.5969C938.573 48.2049 938.696 48.7383 938.941 49.1969C939.197 49.6556 939.528 50.0076 939.933 50.2529C940.349 50.4876 940.787 50.6049 941.245 50.6049C941.715 50.6049 942.152 50.4876 942.557 50.2529C942.963 50.0183 943.288 49.6769 943.533 49.2289C943.789 48.7703 943.917 48.2369 943.917 47.6289ZM950.281 44.7169V49.5969C950.281 49.9276 950.356 50.1676 950.505 50.3169C950.665 50.4556 950.932 50.5249 951.305 50.5249H952.425V52.0449H950.985C950.164 52.0449 949.534 51.8529 949.097 51.4689C948.66 51.0849 948.441 50.4609 948.441 49.5969V44.7169H947.401V43.2289H948.441V41.0369H950.281V43.2289H952.425V44.7169H950.281ZM962.09 43.2289V52.0449H960.266V51.0049C959.978 51.3676 959.6 51.6556 959.13 51.8689C958.672 52.0716 958.181 52.1729 957.658 52.1729C956.965 52.1729 956.341 52.0289 955.786 51.7409C955.242 51.4529 954.81 51.0263 954.49 50.4609C954.181 49.8956 954.026 49.2129 954.026 48.4129V43.2289H955.834V48.1409C955.834 48.9303 956.032 49.5383 956.426 49.9649C956.821 50.3809 957.36 50.5889 958.042 50.5889C958.725 50.5889 959.264 50.3809 959.658 49.9649C960.064 49.5383 960.266 48.9303 960.266 48.1409V43.2289H962.09ZM966.321 44.5089C966.588 44.0609 966.94 43.7143 967.377 43.4689C967.825 43.2129 968.353 43.0849 968.961 43.0849V44.9729H968.497C967.782 44.9729 967.238 45.1543 966.865 45.5169C966.502 45.8796 966.321 46.5089 966.321 47.4049V52.0449H964.497V43.2289H966.321V44.5089ZM978.718 47.4209C978.718 47.7516 978.696 48.0503 978.654 48.3169H971.918C971.971 49.0209 972.232 49.5863 972.702 50.0129C973.171 50.4396 973.747 50.6529 974.43 50.6529C975.411 50.6529 976.104 50.2423 976.51 49.4209H978.477C978.211 50.2316 977.726 50.8983 977.022 51.4209C976.328 51.9329 975.464 52.1889 974.43 52.1889C973.587 52.1889 972.83 52.0023 972.158 51.6289C971.496 51.2449 970.974 50.7116 970.59 50.0289C970.216 49.3356 970.03 48.5356 970.03 47.6289C970.03 46.7223 970.211 45.9276 970.574 45.2449C970.947 44.5516 971.464 44.0183 972.126 43.6449C972.798 43.2716 973.566 43.0849 974.43 43.0849C975.262 43.0849 976.003 43.2663 976.654 43.6289C977.304 43.9916 977.811 44.5036 978.174 45.1649C978.536 45.8156 978.718 46.5676 978.718 47.4209ZM976.814 46.8449C976.803 46.1729 976.563 45.6343 976.094 45.2289C975.624 44.8236 975.043 44.6209 974.35 44.6209C973.72 44.6209 973.182 44.8236 972.734 45.2289C972.286 45.6236 972.019 46.1623 971.934 46.8449H976.814ZM983.713 52.1889C983.019 52.1889 982.395 52.0663 981.841 51.8209C981.297 51.5649 980.865 51.2236 980.545 50.7969C980.225 50.3596 980.054 49.8743 980.033 49.3409H981.921C981.953 49.7143 982.129 50.0289 982.449 50.2849C982.779 50.5303 983.19 50.6529 983.681 50.6529C984.193 50.6529 984.587 50.5569 984.865 50.3649C985.153 50.1623 985.297 49.9063 985.297 49.5969C985.297 49.2663 985.137 49.0209 984.817 48.8609C984.507 48.7009 984.011 48.5249 983.329 48.3329C982.667 48.1516 982.129 47.9756 981.713 47.8049C981.297 47.6343 980.934 47.3729 980.625 47.0209C980.326 46.6689 980.177 46.2049 980.177 45.6289C980.177 45.1596 980.315 44.7329 980.593 44.3489C980.87 43.9543 981.265 43.6449 981.777 43.4209C982.299 43.1969 982.897 43.0849 983.569 43.0849C984.571 43.0849 985.377 43.3409 985.985 43.8529C986.603 44.3543 986.934 45.0423 986.977 45.9169H985.153C985.121 45.5223 984.961 45.2076 984.673 44.9729C984.385 44.7383 983.995 44.6209 983.505 44.6209C983.025 44.6209 982.657 44.7116 982.401 44.8929C982.145 45.0743 982.017 45.3143 982.017 45.6129C982.017 45.8476 982.102 46.0449 982.273 46.2049C982.443 46.3649 982.651 46.4929 982.897 46.5889C983.142 46.6743 983.505 46.7863 983.985 46.9249C984.625 47.0956 985.147 47.2716 985.553 47.4529C985.969 47.6236 986.326 47.8796 986.625 48.2209C986.923 48.5623 987.078 49.0156 987.089 49.5809C987.089 50.0823 986.95 50.5303 986.673 50.9249C986.395 51.3196 986.001 51.6289 985.489 51.8529C984.987 52.0769 984.395 52.1889 983.713 52.1889Z" fill="#BBBBCB"/>
<path d="M1028.98 44.2369C1028.98 44.8023 1028.84 45.3356 1028.58 45.8369C1028.31 46.3383 1027.88 46.7489 1027.3 47.0689C1026.71 47.3783 1025.96 47.5329 1025.04 47.5329H1023.02V52.0449H1021.2V40.9249H1025.04C1025.89 40.9249 1026.61 41.0743 1027.2 41.3729C1027.8 41.6609 1028.24 42.0556 1028.53 42.5569C1028.83 43.0583 1028.98 43.6183 1028.98 44.2369ZM1025.04 46.0449C1025.73 46.0449 1026.25 45.8903 1026.59 45.5809C1026.93 45.2609 1027.1 44.8129 1027.1 44.2369C1027.1 43.0209 1026.42 42.4129 1025.04 42.4129H1023.02V46.0449H1025.04ZM1032.54 44.5089C1032.81 44.0609 1033.16 43.7143 1033.6 43.4689C1034.04 43.2129 1034.57 43.0849 1035.18 43.0849V44.9729H1034.72C1034 44.9729 1033.46 45.1543 1033.08 45.5169C1032.72 45.8796 1032.54 46.5089 1032.54 47.4049V52.0449H1030.72V43.2289H1032.54V44.5089ZM1037.78 42.0609C1037.45 42.0609 1037.18 41.9489 1036.95 41.7249C1036.73 41.5009 1036.62 41.2236 1036.62 40.8929C1036.62 40.5623 1036.73 40.2849 1036.95 40.0609C1037.18 39.8369 1037.45 39.7249 1037.78 39.7249C1038.1 39.7249 1038.38 39.8369 1038.6 40.0609C1038.82 40.2849 1038.94 40.5623 1038.94 40.8929C1038.94 41.2236 1038.82 41.5009 1038.6 41.7249C1038.38 41.9489 1038.1 42.0609 1037.78 42.0609ZM1038.68 43.2289V52.0449H1036.86V43.2289H1038.68ZM1040.47 47.6289C1040.47 46.7223 1040.65 45.9276 1041.01 45.2449C1041.38 44.5516 1041.9 44.0183 1042.55 43.6449C1043.2 43.2716 1043.94 43.0849 1044.79 43.0849C1045.85 43.0849 1046.73 43.3409 1047.43 43.8529C1048.13 44.3543 1048.61 45.0743 1048.85 46.0129H1046.88C1046.72 45.5756 1046.47 45.2343 1046.12 44.9889C1045.76 44.7436 1045.32 44.6209 1044.79 44.6209C1044.04 44.6209 1043.44 44.8876 1043 45.4209C1042.56 45.9436 1042.34 46.6796 1042.34 47.6289C1042.34 48.5783 1042.56 49.3196 1043 49.8529C1043.44 50.3863 1044.04 50.6529 1044.79 50.6529C1045.84 50.6529 1046.54 50.1889 1046.88 49.2609H1048.85C1048.6 50.1569 1048.12 50.8716 1047.41 51.4049C1046.71 51.9276 1045.83 52.1889 1044.79 52.1889C1043.94 52.1889 1043.2 52.0023 1042.55 51.6289C1041.9 51.2449 1041.38 50.7116 1041.01 50.0289C1040.65 49.3356 1040.47 48.5356 1040.47 47.6289ZM1051.6 42.0609C1051.27 42.0609 1050.99 41.9489 1050.76 41.7249C1050.54 41.5009 1050.43 41.2236 1050.43 40.8929C1050.43 40.5623 1050.54 40.2849 1050.76 40.0609C1050.99 39.8369 1051.27 39.7249 1051.6 39.7249C1051.92 39.7249 1052.19 39.8369 1052.41 40.0609C1052.64 40.2849 1052.75 40.5623 1052.75 40.8929C1052.75 41.2236 1052.64 41.5009 1052.41 41.7249C1052.19 41.9489 1051.92 42.0609 1051.6 42.0609ZM1052.49 43.2289V52.0449H1050.67V43.2289H1052.49ZM1059.34 43.0849C1060.03 43.0849 1060.65 43.2289 1061.19 43.5169C1061.75 43.8049 1062.18 44.2316 1062.49 44.7969C1062.8 45.3623 1062.95 46.0449 1062.95 46.8449V52.0449H1061.14V47.1169C1061.14 46.3276 1060.95 45.7249 1060.55 45.3089C1060.16 44.8823 1059.62 44.6689 1058.94 44.6689C1058.25 44.6689 1057.71 44.8823 1057.3 45.3089C1056.91 45.7249 1056.71 46.3276 1056.71 47.1169V52.0449H1054.89V43.2289H1056.71V44.2369C1057.01 43.8743 1057.39 43.5916 1057.85 43.3889C1058.32 43.1863 1058.81 43.0849 1059.34 43.0849ZM1068.83 43.0849C1069.51 43.0849 1070.12 43.2236 1070.64 43.5009C1071.17 43.7676 1071.59 44.1036 1071.89 44.5089V43.2289H1073.73V52.1889C1073.73 52.9996 1073.56 53.7196 1073.21 54.3489C1072.87 54.9889 1072.38 55.4903 1071.73 55.8529C1071.09 56.2156 1070.32 56.3969 1069.42 56.3969C1068.23 56.3969 1067.24 56.1143 1066.45 55.5489C1065.66 54.9943 1065.21 54.2369 1065.1 53.2769H1066.91C1067.05 53.7356 1067.34 54.1036 1067.79 54.3809C1068.25 54.6689 1068.79 54.8129 1069.42 54.8129C1070.16 54.8129 1070.75 54.5889 1071.2 54.1409C1071.66 53.6929 1071.89 53.0423 1071.89 52.1889V50.7169C1071.58 51.1329 1071.16 51.4849 1070.62 51.7729C1070.1 52.0503 1069.5 52.1889 1068.83 52.1889C1068.06 52.1889 1067.36 51.9969 1066.72 51.6129C1066.09 51.2183 1065.59 50.6743 1065.21 49.9809C1064.85 49.2769 1064.67 48.4823 1064.67 47.5969C1064.67 46.7116 1064.85 45.9276 1065.21 45.2449C1065.59 44.5623 1066.09 44.0343 1066.72 43.6609C1067.36 43.2769 1068.06 43.0849 1068.83 43.0849ZM1071.89 47.6289C1071.89 47.0209 1071.76 46.4929 1071.5 46.0449C1071.26 45.5969 1070.93 45.2556 1070.53 45.0209C1070.12 44.7863 1069.68 44.6689 1069.21 44.6689C1068.74 44.6689 1068.31 44.7863 1067.9 45.0209C1067.5 45.2449 1067.17 45.5809 1066.91 46.0289C1066.66 46.4663 1066.54 46.9889 1066.54 47.5969C1066.54 48.2049 1066.66 48.7383 1066.91 49.1969C1067.17 49.6556 1067.5 50.0076 1067.9 50.2529C1068.32 50.4876 1068.76 50.6049 1069.21 50.6049C1069.68 50.6049 1070.12 50.4876 1070.53 50.2529C1070.93 50.0183 1071.26 49.6769 1071.5 49.2289C1071.76 48.7703 1071.89 48.2369 1071.89 47.6289Z" fill="#BBBBCB"/>
<path d="M1114.74 40.9249V42.4129H1110.02V45.6929H1113.7V47.1809H1110.02V52.0449H1108.2V40.9249H1114.74ZM1123.14 49.7729H1118.48L1117.68 52.0449H1115.78L1119.76 40.9089H1121.87L1125.86 52.0449H1123.94L1123.14 49.7729ZM1122.63 48.2849L1120.82 43.1169L1118.99 48.2849H1122.63ZM1136.2 54.0609L1134.25 51.9489C1133.77 52.0876 1133.24 52.1569 1132.66 52.1569C1131.63 52.1569 1130.67 51.9169 1129.8 51.4369C1128.93 50.9463 1128.25 50.2689 1127.73 49.4049C1127.23 48.5303 1126.98 47.5489 1126.98 46.4609C1126.98 45.3729 1127.23 44.3969 1127.73 43.5329C1128.25 42.6689 1128.93 41.9969 1129.8 41.5169C1130.67 41.0263 1131.63 40.7809 1132.66 40.7809C1133.71 40.7809 1134.66 41.0263 1135.53 41.5169C1136.4 41.9969 1137.09 42.6689 1137.59 43.5329C1138.09 44.3969 1138.34 45.3729 1138.34 46.4609C1138.34 47.4849 1138.12 48.4129 1137.67 49.2449C1137.23 50.0663 1136.63 50.7276 1135.85 51.2289L1138.52 54.0609H1136.2ZM1128.85 46.4609C1128.85 47.2823 1129.01 48.0076 1129.33 48.6369C1129.67 49.2556 1130.12 49.7356 1130.69 50.0769C1131.27 50.4076 1131.93 50.5729 1132.66 50.5729C1133.4 50.5729 1134.05 50.4076 1134.63 50.0769C1135.21 49.7356 1135.65 49.2556 1135.97 48.6369C1136.31 48.0076 1136.47 47.2823 1136.47 46.4609C1136.47 45.6396 1136.31 44.9196 1135.97 44.3009C1135.65 43.6823 1135.21 43.2076 1134.63 42.8769C1134.05 42.5463 1133.4 42.3809 1132.66 42.3809C1131.93 42.3809 1131.27 42.5463 1130.69 42.8769C1130.12 43.2076 1129.67 43.6823 1129.33 44.3009C1129.01 44.9196 1128.85 45.6396 1128.85 46.4609Z" fill="#BBBBCB"/>
<path d="M1178.15 46.3329C1178.75 46.4396 1179.26 46.7543 1179.67 47.2769C1180.09 47.7996 1180.3 48.3916 1180.3 49.0529C1180.3 49.6183 1180.15 50.1303 1179.85 50.5889C1179.56 51.0369 1179.14 51.3943 1178.58 51.6609C1178.03 51.9169 1177.38 52.0449 1176.65 52.0449H1172.2V40.9249H1176.44C1177.2 40.9249 1177.85 41.0529 1178.39 41.3089C1178.94 41.5649 1179.35 41.9116 1179.62 42.3489C1179.9 42.7756 1180.04 43.2556 1180.04 43.7889C1180.04 44.4289 1179.87 44.9623 1179.53 45.3889C1179.19 45.8156 1178.73 46.1303 1178.15 46.3329ZM1174.02 45.5969H1176.28C1176.88 45.5969 1177.34 45.4636 1177.67 45.1969C1178.01 44.9196 1178.18 44.5249 1178.18 44.0129C1178.18 43.5116 1178.01 43.1223 1177.67 42.8449C1177.34 42.5569 1176.88 42.4129 1176.28 42.4129H1174.02V45.5969ZM1176.49 50.5569C1177.11 50.5569 1177.59 50.4076 1177.94 50.1089C1178.3 49.8103 1178.47 49.3943 1178.47 48.8609C1178.47 48.3169 1178.29 47.8849 1177.91 47.5649C1177.54 47.2449 1177.04 47.0849 1176.42 47.0849H1174.02V50.5569H1176.49ZM1184.1 40.2049V52.0449H1182.28V40.2049H1184.1ZM1190.32 52.1889C1189.49 52.1889 1188.74 52.0023 1188.06 51.6289C1187.39 51.2449 1186.86 50.7116 1186.48 50.0289C1186.1 49.3356 1185.9 48.5356 1185.9 47.6289C1185.9 46.7329 1186.1 45.9383 1186.5 45.2449C1186.89 44.5516 1187.43 44.0183 1188.11 43.6449C1188.8 43.2716 1189.56 43.0849 1190.4 43.0849C1191.24 43.0849 1192.01 43.2716 1192.69 43.6449C1193.37 44.0183 1193.91 44.5516 1194.3 45.2449C1194.7 45.9383 1194.9 46.7329 1194.9 47.6289C1194.9 48.5249 1194.69 49.3196 1194.29 50.0129C1193.88 50.7063 1193.33 51.2449 1192.62 51.6289C1191.93 52.0023 1191.16 52.1889 1190.32 52.1889ZM1190.32 50.6049C1190.79 50.6049 1191.23 50.4929 1191.63 50.2689C1192.05 50.0449 1192.38 49.7089 1192.64 49.2609C1192.9 48.8129 1193.02 48.2689 1193.02 47.6289C1193.02 46.9889 1192.9 46.4503 1192.66 46.0129C1192.41 45.5649 1192.09 45.2289 1191.68 45.0049C1191.28 44.7809 1190.84 44.6689 1190.37 44.6689C1189.9 44.6689 1189.46 44.7809 1189.06 45.0049C1188.66 45.2289 1188.35 45.5649 1188.11 46.0129C1187.88 46.4503 1187.76 46.9889 1187.76 47.6289C1187.76 48.5783 1188 49.3143 1188.48 49.8369C1188.97 50.3489 1189.58 50.6049 1190.32 50.6049ZM1200.25 43.0849C1200.93 43.0849 1201.54 43.2236 1202.06 43.5009C1202.59 43.7676 1203.01 44.1036 1203.31 44.5089V43.2289H1205.15V52.1889C1205.15 52.9996 1204.98 53.7196 1204.64 54.3489C1204.29 54.9889 1203.8 55.4903 1203.15 55.8529C1202.51 56.2156 1201.74 56.3969 1200.84 56.3969C1199.65 56.3969 1198.66 56.1143 1197.87 55.5489C1197.08 54.9943 1196.63 54.2369 1196.52 53.2769H1198.33C1198.47 53.7356 1198.76 54.1036 1199.21 54.3809C1199.67 54.6689 1200.21 54.8129 1200.84 54.8129C1201.58 54.8129 1202.17 54.5889 1202.62 54.1409C1203.08 53.6929 1203.31 53.0423 1203.31 52.1889V50.7169C1203 51.1329 1202.58 51.4849 1202.04 51.7729C1201.52 52.0503 1200.92 52.1889 1200.25 52.1889C1199.48 52.1889 1198.78 51.9969 1198.14 51.6129C1197.51 51.2183 1197.01 50.6743 1196.64 49.9809C1196.27 49.2769 1196.09 48.4823 1196.09 47.5969C1196.09 46.7116 1196.27 45.9276 1196.64 45.2449C1197.01 44.5623 1197.51 44.0343 1198.14 43.6609C1198.78 43.2769 1199.48 43.0849 1200.25 43.0849ZM1203.31 47.6289C1203.31 47.0209 1203.18 46.4929 1202.92 46.0449C1202.68 45.5969 1202.35 45.2556 1201.95 45.0209C1201.54 44.7863 1201.11 44.6689 1200.64 44.6689C1200.17 44.6689 1199.73 44.7863 1199.32 45.0209C1198.92 45.2449 1198.59 45.5809 1198.33 46.0289C1198.09 46.4663 1197.96 46.9889 1197.96 47.5969C1197.96 48.2049 1198.09 48.7383 1198.33 49.1969C1198.59 49.6556 1198.92 50.0076 1199.32 50.2529C1199.74 50.4876 1200.18 50.6049 1200.64 50.6049C1201.11 50.6049 1201.54 50.4876 1201.95 50.2529C1202.35 50.0183 1202.68 49.6769 1202.92 49.2289C1203.18 48.7703 1203.31 48.2369 1203.31 47.6289Z" fill="#BBBBCB"/>
<g clip-path="url(#clip0_715_924)">
<path d="M281.783 51.8719V54.891H279.251C276.548 54.806 275.104 53.3467 275.104 50.6055V43.7102H273.336V41.0617H275.104V38.0967H278.841V41.0309H281.698V43.6716H278.841V50.2349C278.841 51.1229 279.019 51.8333 280.386 51.8333L281.783 51.8719Z" fill="white"/>
<path d="M258.443 48.0033V47.8026C258.402 46.9145 258.537 46.0272 258.841 45.1914C259.144 44.3557 259.609 43.5881 260.209 42.9324C260.81 42.2768 261.533 41.7461 262.339 41.3708C263.145 40.9954 264.017 40.7828 264.905 40.7451C265.083 40.7451 265.268 40.7451 265.446 40.7451C268.975 40.7451 272.071 42.799 272.071 47.6945V48.7369H262.265C262.365 50.9916 263.585 52.2656 265.639 52.2656C267.407 52.2656 268.233 51.4935 268.473 50.3661H272.002C271.569 53.308 269.222 54.945 265.508 54.945C261.431 54.9141 258.443 52.3351 258.443 48.0033ZM268.396 46.3741C268.264 44.3202 267.23 43.3318 265.431 43.3318C263.631 43.3318 262.597 44.4437 262.342 46.3741H268.396Z" fill="white"/>
<path d="M243.185 48.0033V47.8026C243.144 46.9157 243.279 46.0296 243.581 45.1949C243.883 44.3601 244.347 43.5931 244.946 42.9377C245.545 42.2823 246.267 41.7513 247.071 41.375C247.875 40.9988 248.745 40.7848 249.632 40.7451C249.81 40.7451 249.995 40.7451 250.173 40.7451C253.701 40.7451 256.806 42.799 256.806 47.6945V48.7369H247.007C247.107 50.9916 248.327 52.2656 250.381 52.2656C252.149 52.2656 252.976 51.4935 253.215 50.3661H256.744C256.304 53.308 253.956 54.945 250.242 54.945C246.173 54.9141 243.185 52.3351 243.185 48.0033ZM253.138 46.3741C253.007 44.3202 251.972 43.3318 250.173 43.3318C248.374 43.3318 247.37 44.4746 247.084 46.3664L253.138 46.3741Z" fill="white"/>
<path d="M221.771 41.0303H225.725L228.142 50.188L230.79 41.0303H233.879L236.272 50.188L238.821 41.0303H242.442L238.149 54.6356H234.442L232.126 46.0956L229.647 54.6356H225.895L221.771 41.0303Z" fill="white"/>
<path d="M209.209 50.358H212.738C212.9 51.5858 213.51 52.2884 215.131 52.2884C216.583 52.2884 217.255 51.7402 217.255 50.8059C217.255 49.8716 216.483 49.4778 214.506 49.1998C210.885 48.6516 209.487 47.6092 209.487 44.953C209.487 42.1192 212.081 40.7139 214.892 40.7139C217.911 40.7139 220.189 41.8103 220.513 44.9375H217.031C217.009 44.6958 216.939 44.4608 216.825 44.2462C216.712 44.0317 216.557 43.8417 216.369 43.6873C216.182 43.533 215.966 43.4173 215.733 43.3469C215.501 43.2766 215.257 43.2529 215.016 43.2774H214.9C213.68 43.2774 212.969 43.8488 212.969 44.6827C212.969 45.5167 213.626 45.8796 215.618 46.1653C219 46.6749 220.892 47.532 220.892 50.443C220.892 53.354 218.753 54.9137 215.17 54.9137C211.587 54.9137 209.309 53.2999 209.209 50.358Z" fill="white"/>
<path d="M194.215 41.03H197.952V43.1843C198.373 42.3936 199.013 41.7404 199.794 41.3024C200.576 40.8644 201.467 40.66 202.361 40.7134C205.01 40.7134 206.932 42.3272 206.932 46.0104V54.6662H203.241V46.5509C203.241 44.7054 202.523 43.8252 200.855 43.8252C200.503 43.7945 200.148 43.8337 199.81 43.9406C199.473 44.0476 199.16 44.22 198.89 44.4482C198.619 44.6763 198.397 44.9556 198.234 45.2701C198.072 45.5846 197.974 45.928 197.944 46.2806C197.925 46.4448 197.925 46.6107 197.944 46.7748V54.6353H194.215V41.03Z" fill="white"/>
<path d="M187.001 37.6097C186.988 37.2371 187.085 36.8688 187.281 36.5516C187.477 36.2343 187.762 35.9823 188.102 35.8274C188.441 35.6726 188.818 35.6218 189.186 35.6816C189.554 35.7414 189.896 35.9091 190.169 36.1634C190.442 36.4177 190.633 36.7472 190.718 37.1101C190.803 37.4731 190.779 37.8532 190.648 38.2024C190.517 38.5515 190.286 38.854 189.983 39.0715C189.68 39.289 189.32 39.4118 188.947 39.4243H188.878C188.646 39.4389 188.414 39.4077 188.195 39.3326C187.976 39.2574 187.774 39.1396 187.6 38.9861C187.427 38.8326 187.285 38.6463 187.183 38.4379C187.082 38.2296 187.023 38.0032 187.009 37.7719C187.003 37.7181 187 37.6639 187.001 37.6097ZM187.001 41.0304H190.777V54.6357H187.017L187.001 41.0304Z" fill="white"/>
<path d="M172.771 36.042H184.709V39.3391H176.987V44.2577H183.103V47.4312H176.98V54.6354H172.771V36.042Z" fill="white"/>
<path d="M165.567 42.1268C165.567 43.2928 165.567 44.7135 163.961 45.2927C165.606 45.8563 165.567 47.0532 165.567 48.3041V52.937C165.567 53.8172 165.922 54.35 166.556 54.4813C166.695 54.5282 166.841 54.5491 166.988 54.543H168.532V57.6316H165.984C163.266 57.6316 161.768 56.0873 161.768 53.2227V47.7404C161.749 47.4589 161.625 47.1949 161.42 47.0005C161.216 46.8061 160.946 46.6954 160.664 46.6903H160V43.98H160.664C160.952 43.9762 161.227 43.8618 161.433 43.6605C161.638 43.4592 161.758 43.1865 161.768 42.899V37.3395C161.768 34.5211 163.235 33 165.984 33H168.555V36.0423H167.011C166.864 36.0427 166.718 36.0662 166.579 36.1118C165.946 36.2739 165.59 36.799 165.59 37.6561L165.567 42.1268Z" fill="white"/>
</g>
<defs>
<clipPath id="clip0_715_924">
<rect width="122" height="24.7089" fill="white" transform="translate(160 33)"/>
</clipPath>
</defs>
</svg>
